<?xml version="1.0" encoding="UTF-8" standalone="no"?>
<svg
   xmlns:dc="http://purl.org/dc/elements/1.1/"
   xmlns:cc="http://creativecommons.org/ns#"
   xmlns:rdf="http://www.w3.org/1999/02/22-rdf-syntax-ns#"
   xmlns:svg="http://www.w3.org/2000/svg"
   xmlns="http://www.w3.org/2000/svg"
   xmlns:sodipodi="http://sodipodi.sourceforge.net/DTD/sodipodi-0.dtd"
   xmlns:inkscape="http://www.inkscape.org/namespaces/inkscape"
   width="73.290001mm"
   height="73.290001mm"
   version="1.1"
   viewBox="0 0 73.290001 73.290001"
   id="svg4510"
   sodipodi:docname="main_logo.svg"
   inkscape:version="0.92.1 r15371">
  <sodipodi:namedview
     pagecolor="#ffffff"
     bordercolor="#666666"
     borderopacity="1"
     objecttolerance="10"
     gridtolerance="10"
     guidetolerance="10"
     inkscape:pageopacity="0"
     inkscape:pageshadow="2"
     inkscape:window-width="1920"
     inkscape:window-height="986"
     id="namedview4512"
     showgrid="false"
     inkscape:zoom="0.69612787"
     inkscape:cx="-229.42596"
     inkscape:cy="246.26571"
     inkscape:window-x="-11"
     inkscape:window-y="-11"
     inkscape:window-maximized="1"
     inkscape:current-layer="svg4510" />
  <defs
     id="defs4490">
    <linearGradient
       id="a"
       x1="95.778999"
       x2="96.043999"
       y1="91.947998"
       y2="166.3"
       gradientUnits="userSpaceOnUse"
       gradientTransform="translate(-59.266003,-92.744999)">
      <stop
         stop-color="#0ff"
         offset="0"
         id="stop4485" />
      <stop
         stop-color="#fff"
         offset="1"
         id="stop4487" />
    </linearGradient>
  </defs>
  <metadata
     id="metadata4492">
    <rdf:RDF>
      <cc:Work
         rdf:about="">
        <dc:format>image/svg+xml</dc:format>
        <dc:type
           rdf:resource="http://purl.org/dc/dcmitype/StillImage" />
        <dc:title></dc:title>
      </cc:Work>
    </rdf:RDF>
  </metadata>
  <path
     inkscape:connector-curvature="0"
     id="circle4494"
     d="M 73.290001,36.645003 A 36.645,36.645 0 0 1 36.645,73.290003 36.645,36.645 0 0 1 0,36.645003 36.645,36.645 0 0 1 36.645,0 36.645,36.645 0 0 1 73.290001,36.645003 Z"
     style="fill:url(#a)" />
  <g
     id="text4498"
     style="font-size:31.75px;line-height:1.25;font-family:'Lucida Calligraphy';letter-spacing:0px;word-spacing:0px;fill:#0cd02c;stroke-width:0.26458001"
     aria-label="V"
     transform="translate(-59.266003,-92.744999)">
    <path
       inkscape:connector-curvature="0"
       id="path4515"
       style="font-size:50.79999924px;fill:#0cd02c;stroke-width:0.26458001"
       d="m 90.413087,162.41803 0.148828,-6.47402 q 0,-19.22364 -3.497461,-26.68985 -3.695898,-7.86308 -9.05371,-7.86308 -4.836914,0 -8.557618,6.17636 l -1.265039,-0.66972 q 5.506641,-8.55762 12.030274,-8.55762 15.577343,0 15.577343,35.74355 l 7.937496,-12.42714 q 7.21817,-11.28614 7.21817,-14.11387 0,-0.94258 -2.23242,-0.94258 h -1.98438 l 0.29766,-1.51308 h 10.66601 l -0.32246,1.51308 h -2.05879 l -22.299411,35.19785 z" />
  </g>
  <g
     id="text4502"
     style="font-size:31.75px;line-height:1.25;font-family:'Lucida Calligraphy';letter-spacing:0px;word-spacing:0px;fill:#000000;stroke-width:0.26458001"
     transform="translate(-59.266003,-92.744999)" />
  <g
     id="text4506"
     style="font-size:31.75px;line-height:1.25;font-family:'Lucida Calligraphy';letter-spacing:0px;word-spacing:0px;fill:#fa0b16;stroke-width:0.26458001"
     aria-label="V"
     transform="translate(-59.266003,-92.744999)">
    <path
       inkscape:connector-curvature="0"
       id="path4519"
       style="font-size:42.33300018px;fill:#fa0b16;stroke-width:0.26458001"
       d="m 95.452405,140.35425 0.124022,-5.39497 q 0,-16.01957 -2.914528,-22.24136 -3.079891,-6.55252 -7.5447,-6.55252 -4.03073,0 -7.131291,5.14693 l -1.054191,-0.5581 q 4.588831,-7.13129 10.025149,-7.13129 12.981018,0 12.981018,29.78606 l 6.614526,-10.35588 q 6.01509,-9.40504 6.01509,-11.76146 0,-0.78548 -1.86033,-0.78548 h -1.65364 l 0.24805,-1.26089 h 8.88828 l -0.26872,1.26089 h -1.71564 l -18.582702,29.33131 z" />
  </g>
</svg>
